<?xml version="1.0" encoding="UTF-8"?>
<svg width="200" height="200" viewBox="0 0 200 200" fill="none" xmlns="http://www.w3.org/2000/svg">
    <!-- Cloud -->
    <path d="M160 80C160 53.49 138.51 32 112 32C89.36 32 70.36 47.53 65.47 68.46C62.43 67.51 59.26 67 56 67C38.33 67 24 81.33 24 99C24 116.67 38.33 131 56 131H152C157.52 131 160 128.52 160 123V80Z" fill="white"/>
    <!-- Lightning Bolts -->
    <path d="M90 100L70 130H90L75 160L105 125H85L100 100H90Z" fill="#FFD700"/>
    <path d="M120 90L100 120H120L105 150L135 115H115L130 90H120Z" fill="#FFD700"/>
    <path d="M150 95L130 125H150L135 155L165 120H145L160 95H150Z" fill="#FFD700"/>
</svg> 