<svg width="349" height="282" viewBox="0 0 349 282" fill="none" xmlns="http://www.w3.org/2000/svg">
<g filter="url(#filter0_f_289_1985)">
<ellipse cx="97.6976" cy="98.7144" rx="62.2779" ry="63" fill="url(#paint0_linear_289_1985)"/>
</g>
<ellipse cx="97.6976" cy="98.7144" rx="62.2779" ry="63" fill="url(#paint1_linear_289_1985)"/>
<g filter="url(#filter1_f_289_1985)">
<ellipse cx="17.6259" cy="125.714" rx="7.62587" ry="7.71429" fill="#FFEA4A"/>
</g>
<ellipse cx="17.6259" cy="125.714" rx="7.62587" ry="7.71429" fill="url(#paint2_linear_289_1985)"/>
<g filter="url(#filter2_f_289_1985)">
<ellipse cx="17.6259" cy="63.9999" rx="7.62587" ry="7.71429" fill="#FFEA4A"/>
</g>
<ellipse cx="17.6259" cy="63.9999" rx="7.62587" ry="7.71429" fill="url(#paint3_linear_289_1985)"/>
<g filter="url(#filter3_f_289_1985)">
<ellipse cx="60.8392" cy="17.7143" rx="7.62587" ry="7.71429" fill="#FFEA4A"/>
</g>
<ellipse cx="60.8392" cy="17.7143" rx="7.62587" ry="7.71429" fill="url(#paint4_linear_289_1985)"/>
<g filter="url(#filter4_f_289_1985)">
<ellipse cx="126.93" cy="17.7143" rx="7.62587" ry="7.71429" fill="#FFEA4A"/>
</g>
<ellipse cx="126.93" cy="17.7143" rx="7.62587" ry="7.71429" fill="url(#paint5_linear_289_1985)"/>
<g filter="url(#filter5_f_289_1985)">
<path d="M168.872 55C144.47 55 129.048 74.2857 124.388 84.5714C123.117 87.1429 118.457 95.2855 118.033 96.1429C116.762 98.7143 112.949 103.857 105.323 111.571C97.6976 119.286 91.94 121.417 77.0728 125.714C50.3822 133.429 46.5693 149.179 42.7565 154C32.651 166.779 35.1307 197.714 37.6727 208C40.2146 218.286 54.1952 232.429 60.5501 238.857C65.634 244 77.0728 253 87.2407 253L270.261 244C276.193 244.429 291.36 240.4 304.578 226C321.101 208 323.642 193.857 324.913 179.714C326.687 159.983 300.765 123.143 291.868 123.143C286.784 123.143 252.044 99.1429 237.216 87.1429L209.255 64C206.289 61.4286 193.275 55 168.872 55Z" fill="url(#paint6_linear_289_1985)"/>
</g>
<g filter="url(#filter6_d_289_1985)">
<path d="M168.872 55C144.47 55 129.048 74.2857 124.388 84.5714C123.117 87.1429 118.457 95.2855 118.033 96.1429C116.762 98.7143 112.949 103.857 105.323 111.571C97.6976 119.286 91.94 121.417 77.0728 125.714C50.3822 133.429 46.5693 149.179 42.7565 154C32.651 166.779 35.1307 197.714 37.6727 208C40.2146 218.286 54.1952 232.429 60.5501 238.857C65.634 244 77.0728 253 87.2407 253L270.261 244C276.193 244.429 291.36 240.4 304.578 226C321.101 208 323.642 193.857 324.913 179.714C326.687 159.983 300.765 123.143 291.868 123.143C286.784 123.143 252.044 99.1429 237.216 87.1429L209.255 64C206.289 61.4286 193.275 55 168.872 55Z" fill="url(#paint7_linear_289_1985)"/>
</g>
<g filter="url(#filter7_f_289_1985)">
<rect x="238.776" y="223.428" width="17.7937" height="51.4286" rx="8.89684" fill="#23A0DF"/>
</g>
<rect x="238.776" y="223.428" width="17.7937" height="51.4286" rx="8.89684" fill="url(#paint8_radial_289_1985)"/>
<g filter="url(#filter8_f_289_1985)">
<rect x="210.814" y="190" width="17.7937" height="51.4286" rx="8.89684" fill="#23A0DF"/>
</g>
<rect x="210.814" y="190" width="17.7937" height="51.4286" rx="8.89684" fill="url(#paint9_radial_289_1985)"/>
<g filter="url(#filter9_f_289_1985)">
<rect x="180.311" y="241.429" width="15.2517" height="38.5714" rx="7.62587" fill="#23A0DF"/>
</g>
<rect x="180.311" y="241.429" width="15.2517" height="38.5714" rx="7.62587" fill="url(#paint10_radial_289_1985)"/>
<g filter="url(#filter10_f_289_1985)">
<rect x="101.51" y="233.714" width="15.2517" height="38.5714" rx="7.62587" fill="#3AA9DF"/>
</g>
<rect x="101.51" y="233.714" width="15.2517" height="38.5714" rx="7.62587" fill="url(#paint11_radial_289_1985)"/>
<g filter="url(#filter11_f_289_1985)">
<rect x="175.227" y="184.857" width="17.7937" height="41.1429" rx="8.89684" fill="#3AA9DF"/>
</g>
<rect x="175.227" y="184.857" width="17.7937" height="41.1429" rx="8.89684" fill="url(#paint12_radial_289_1985)"/>
<g filter="url(#filter12_f_289_1985)">
<rect x="139.64" y="208" width="17.7937" height="48.8571" rx="8.89684" fill="#3AA9DF"/>
</g>
<rect x="139.64" y="208" width="17.7937" height="48.8571" rx="8.89684" fill="url(#paint13_radial_289_1985)"/>
<defs>
<filter id="filter0_f_289_1985" x="25.4197" y="25.7144" width="144.556" height="146" filterUnits="userSpaceOnUse" color-interpolation-filters="sRGB">
<feFlood flood-opacity="0" result="BackgroundImageFix"/>
<feBlend mode="normal" in="SourceGraphic" in2="BackgroundImageFix" result="shape"/>
<feGaussianBlur stdDeviation="5" result="effect1_foregroundBlur_289_1985"/>
</filter>
<filter id="filter1_f_289_1985" x="0" y="108" width="35.2517" height="35.4287" filterUnits="userSpaceOnUse" color-interpolation-filters="sRGB">
<feFlood flood-opacity="0" result="BackgroundImageFix"/>
<feBlend mode="normal" in="SourceGraphic" in2="BackgroundImageFix" result="shape"/>
<feGaussianBlur stdDeviation="5" result="effect1_foregroundBlur_289_1985"/>
</filter>
<filter id="filter2_f_289_1985" x="0" y="46.2856" width="35.2517" height="35.4287" filterUnits="userSpaceOnUse" color-interpolation-filters="sRGB">
<feFlood flood-opacity="0" result="BackgroundImageFix"/>
<feBlend mode="normal" in="SourceGraphic" in2="BackgroundImageFix" result="shape"/>
<feGaussianBlur stdDeviation="5" result="effect1_foregroundBlur_289_1985"/>
</filter>
<filter id="filter3_f_289_1985" x="43.2134" y="0" width="35.2517" height="35.4287" filterUnits="userSpaceOnUse" color-interpolation-filters="sRGB">
<feFlood flood-opacity="0" result="BackgroundImageFix"/>
<feBlend mode="normal" in="SourceGraphic" in2="BackgroundImageFix" result="shape"/>
<feGaussianBlur stdDeviation="5" result="effect1_foregroundBlur_289_1985"/>
</filter>
<filter id="filter4_f_289_1985" x="109.304" y="0" width="35.2517" height="35.4287" filterUnits="userSpaceOnUse" color-interpolation-filters="sRGB">
<feFlood flood-opacity="0" result="BackgroundImageFix"/>
<feBlend mode="normal" in="SourceGraphic" in2="BackgroundImageFix" result="shape"/>
<feGaussianBlur stdDeviation="5" result="effect1_foregroundBlur_289_1985"/>
</filter>
<filter id="filter5_f_289_1985" x="15.4197" y="35" width="329.581" height="238" filterUnits="userSpaceOnUse" color-interpolation-filters="sRGB">
<feFlood flood-opacity="0" result="BackgroundImageFix"/>
<feBlend mode="normal" in="SourceGraphic" in2="BackgroundImageFix" result="shape"/>
<feGaussianBlur stdDeviation="10" result="effect1_foregroundBlur_289_1985"/>
</filter>
<filter id="filter6_d_289_1985" x="19.4197" y="41" width="329.581" height="238" filterUnits="userSpaceOnUse" color-interpolation-filters="sRGB">
<feFlood flood-opacity="0" result="BackgroundImageFix"/>
<feColorMatrix in="SourceAlpha" type="matrix" values="0 0 0 0 0 0 0 0 0 0 0 0 0 0 0 0 0 0 127 0" result="hardAlpha"/>
<feOffset dx="4" dy="6"/>
<feGaussianBlur stdDeviation="10"/>
<feComposite in2="hardAlpha" operator="out"/>
<feColorMatrix type="matrix" values="0 0 0 0 0 0 0 0 0 0 0 0 0 0 0 0 0 0 0.25 0"/>
<feBlend mode="normal" in2="BackgroundImageFix" result="effect1_dropShadow_289_1985"/>
<feBlend mode="normal" in="SourceGraphic" in2="effect1_dropShadow_289_1985" result="shape"/>
</filter>
<filter id="filter7_f_289_1985" x="236.776" y="221.428" width="21.7937" height="55.4287" filterUnits="userSpaceOnUse" color-interpolation-filters="sRGB">
<feFlood flood-opacity="0" result="BackgroundImageFix"/>
<feBlend mode="normal" in="SourceGraphic" in2="BackgroundImageFix" result="shape"/>
<feGaussianBlur stdDeviation="1" result="effect1_foregroundBlur_289_1985"/>
</filter>
<filter id="filter8_f_289_1985" x="208.814" y="188" width="21.7937" height="55.4287" filterUnits="userSpaceOnUse" color-interpolation-filters="sRGB">
<feFlood flood-opacity="0" result="BackgroundImageFix"/>
<feBlend mode="normal" in="SourceGraphic" in2="BackgroundImageFix" result="shape"/>
<feGaussianBlur stdDeviation="1" result="effect1_foregroundBlur_289_1985"/>
</filter>
<filter id="filter9_f_289_1985" x="178.311" y="239.429" width="19.2517" height="42.5713" filterUnits="userSpaceOnUse" color-interpolation-filters="sRGB">
<feFlood flood-opacity="0" result="BackgroundImageFix"/>
<feBlend mode="normal" in="SourceGraphic" in2="BackgroundImageFix" result="shape"/>
<feGaussianBlur stdDeviation="1" result="effect1_foregroundBlur_289_1985"/>
</filter>
<filter id="filter10_f_289_1985" x="99.5105" y="231.714" width="19.2517" height="42.5713" filterUnits="userSpaceOnUse" color-interpolation-filters="sRGB">
<feFlood flood-opacity="0" result="BackgroundImageFix"/>
<feBlend mode="normal" in="SourceGraphic" in2="BackgroundImageFix" result="shape"/>
<feGaussianBlur stdDeviation="1" result="effect1_foregroundBlur_289_1985"/>
</filter>
<filter id="filter11_f_289_1985" x="173.227" y="182.857" width="21.7937" height="45.1431" filterUnits="userSpaceOnUse" color-interpolation-filters="sRGB">
<feFlood flood-opacity="0" result="BackgroundImageFix"/>
<feBlend mode="normal" in="SourceGraphic" in2="BackgroundImageFix" result="shape"/>
<feGaussianBlur stdDeviation="1" result="effect1_foregroundBlur_289_1985"/>
</filter>
<filter id="filter12_f_289_1985" x="137.64" y="206" width="21.7937" height="52.8569" filterUnits="userSpaceOnUse" color-interpolation-filters="sRGB">
<feFlood flood-opacity="0" result="BackgroundImageFix"/>
<feBlend mode="normal" in="SourceGraphic" in2="BackgroundImageFix" result="shape"/>
<feGaussianBlur stdDeviation="1" result="effect1_foregroundBlur_289_1985"/>
</filter>
<linearGradient id="paint0_linear_289_1985" x1="58.2973" y1="49.8572" x2="131.836" y2="149.335" gradientUnits="userSpaceOnUse">
<stop stop-color="#F2D811"/>
<stop offset="1" stop-color="#C4AC22"/>
</linearGradient>
<linearGradient id="paint1_linear_289_1985" x1="58.2973" y1="49.8572" x2="131.836" y2="149.335" gradientUnits="userSpaceOnUse">
<stop stop-color="#F2D811"/>
<stop offset="1" stop-color="#C4AC22"/>
</linearGradient>
<linearGradient id="paint2_linear_289_1985" x1="12.8013" y1="119.732" x2="21.806" y2="131.913" gradientUnits="userSpaceOnUse">
<stop stop-color="#F2D811"/>
<stop offset="1" stop-color="#C4AC22"/>
</linearGradient>
<linearGradient id="paint3_linear_289_1985" x1="12.8013" y1="58.0174" x2="21.806" y2="70.1984" gradientUnits="userSpaceOnUse">
<stop stop-color="#F2D811"/>
<stop offset="1" stop-color="#C4AC22"/>
</linearGradient>
<linearGradient id="paint4_linear_289_1985" x1="56.0147" y1="11.7318" x2="65.0194" y2="23.9128" gradientUnits="userSpaceOnUse">
<stop stop-color="#F2D811"/>
<stop offset="1" stop-color="#C4AC22"/>
</linearGradient>
<linearGradient id="paint5_linear_289_1985" x1="122.106" y1="11.7318" x2="131.11" y2="23.9128" gradientUnits="userSpaceOnUse">
<stop stop-color="#F2D811"/>
<stop offset="1" stop-color="#C4AC22"/>
</linearGradient>
<linearGradient id="paint6_linear_289_1985" x1="116.762" y1="103.857" x2="279.701" y2="238.295" gradientUnits="userSpaceOnUse">
<stop stop-color="#EAEEED"/>
<stop offset="0.850962" stop-color="#DCDCDC"/>
<stop offset="1" stop-color="#C1BDB7"/>
</linearGradient>
<linearGradient id="paint7_linear_289_1985" x1="116.762" y1="103.857" x2="279.701" y2="238.295" gradientUnits="userSpaceOnUse">
<stop stop-color="#EAEEED"/>
<stop offset="0.850962" stop-color="#DCDCDC"/>
<stop offset="1" stop-color="#C1BDB7"/>
</linearGradient>
<radialGradient id="paint8_radial_289_1985" cx="0" cy="0" r="1" gradientUnits="userSpaceOnUse" gradientTransform="translate(238.776 249.143) scale(13.9808 20.2041)">
<stop offset="0.192713" stop-color="#239FDB"/>
<stop offset="1" stop-color="#0779BF"/>
</radialGradient>
<radialGradient id="paint9_radial_289_1985" cx="0" cy="0" r="1" gradientUnits="userSpaceOnUse" gradientTransform="translate(210.814 215.714) scale(13.9808 20.2041)">
<stop offset="0.192713" stop-color="#239FDB"/>
<stop offset="1" stop-color="#0779BF"/>
</radialGradient>
<radialGradient id="paint10_radial_289_1985" cx="0" cy="0" r="1" gradientUnits="userSpaceOnUse" gradientTransform="translate(180.311 260.714) scale(11.9835 15.1531)">
<stop offset="0.192713" stop-color="#239FDB"/>
<stop offset="1" stop-color="#0779BF"/>
</radialGradient>
<radialGradient id="paint11_radial_289_1985" cx="0" cy="0" r="1" gradientUnits="userSpaceOnUse" gradientTransform="translate(101.51 253) scale(11.9835 15.1531)">
<stop offset="0.192713" stop-color="#3AA9DF"/>
<stop offset="1" stop-color="#088CDD"/>
</radialGradient>
<radialGradient id="paint12_radial_289_1985" cx="0" cy="0" r="1" gradientUnits="userSpaceOnUse" gradientTransform="translate(175.227 205.428) scale(13.9808 16.1633)">
<stop offset="0.192713" stop-color="#3AA9DF"/>
<stop offset="1" stop-color="#088CDD"/>
</radialGradient>
<radialGradient id="paint13_radial_289_1985" cx="0" cy="0" r="1" gradientUnits="userSpaceOnUse" gradientTransform="translate(139.64 232.428) scale(13.9808 19.1939)">
<stop offset="0.192713" stop-color="#3AA9DF"/>
<stop offset="1" stop-color="#088CDD"/>
</radialGradient>
</defs>
</svg>
